<svg xmlns="http://www.w3.org/2000/svg" viewBox="0 0 472 91.32"><title>discord logo</title><path d="M361.58,517.08c-5.83,0-10.61-5.44-10.61-12.06s4.68-12.07,10.61-12.07,10.71,5.44,10.61,12.07S367.51,517.08,361.58,517.08Zm-39.19,0c-5.83,0-10.61-5.44-10.61-12.06s4.68-12.07,10.61-12.07S333.1,498.39,333,505,328.32,517.08,322.39,517.08Zm60.55-54.61a96.09,96.09,0,0,0-24.34-7.65,71.35,71.35,0,0,0-3.12,6.47,89.36,89.36,0,0,0-27,0,69.17,69.17,0,0,0-3.15-6.47A95.77,95.77,0,0,0,301,462.49c-15.4,23.28-19.58,46-17.49,68.35a97.31,97.31,0,0,0,29.85,15.3,74.24,74.24,0,0,0,6.39-10.53,62.86,62.86,0,0,1-10.07-4.9c.84-.63,1.67-1.28,2.47-2a68.79,68.79,0,0,0,59.68,0c.81.67,1.63,1.33,2.47,2a62.71,62.71,0,0,1-10.09,4.91,73.91,73.91,0,0,0,6.39,10.53,97.12,97.12,0,0,0,29.87-15.31C402.92,504.91,396.29,482.42,382.94,462.48Z" transform="translate(-283 -454.83)" style="fill:#5865f2"/><path d="M464.79,512.76q6.17,0,9.48-3.15a11.3,11.3,0,0,0,3.31-8.6,11,11,0,0,0-3-8.06q-2.95-3-8.93-3h-7.92v22.82Zm-23.25-34.63h25.33a37,37,0,0,1,15.5,2.92,20.91,20.91,0,0,1,9.48,8.12A22.58,22.58,0,0,1,495,501.08a21.53,21.53,0,0,1-13.29,20.36Q475,524.55,465,524.55H441.53Z" transform="translate(-283 -454.83)" style="fill:#5865f2"/><path d="M532.92,524.5a33.94,33.94,0,0,1-9.48-4v-11a26,26,0,0,0,8.55,4.15,35.73,35.73,0,0,0,10.36,1.62,7.85,7.85,0,0,0,3.54-.63c.8-.42,1.2-.92,1.2-1.5a2.27,2.27,0,0,0-.65-1.66,5.55,5.55,0,0,0-2.53-1.13l-7.79-1.79q-6.7-1.59-9.51-4.42a10.72,10.72,0,0,1-.35-14.09,15.68,15.68,0,0,1,7-4.41A32.79,32.79,0,0,1,543.91,484a39.37,39.37,0,0,1,10,1.19,27.45,27.45,0,0,1,7.53,3.05v10.42a27.69,27.69,0,0,0-7.05-3,31,31,0,0,0-8.22-1.09q-6.11,0-6.1,2.12a1.59,1.59,0,0,0,.95,1.49,15.41,15.41,0,0,0,3.47,1l6.49,1.19q6.36,1.12,9.48,3.94t3.12,8.33a11.07,11.07,0,0,1-5.16,9.59q-5.16,3.55-14.65,3.55A42.63,42.63,0,0,1,532.92,524.5Z" transform="translate(-283 -454.83)" style="fill:#5865f2"/><path d="M578.91,523.1a19.59,19.59,0,0,1-8.41-7.56,20.79,20.79,0,0,1-2.82-10.75,19.19,19.19,0,0,1,11.5-18.07A31.21,31.21,0,0,1,592.69,484q9.74,0,16.17,4.18v12.14a20.08,20.08,0,0,0-5.29-2.59,20.53,20.53,0,0,0-6.47-1q-6,0-9.45,2.26a6.82,6.82,0,0,0-3.41,5.9,6.9,6.9,0,0,0,3.31,5.88q3.31,2.29,9.61,2.29a22.07,22.07,0,0,0,6.4-1,23.57,23.57,0,0,0,5.42-2.36v11.74a31,31,0,0,1-16.56,4.38A30.28,30.28,0,0,1,578.91,523.1Z" transform="translate(-283 -454.83)" style="fill:#5865f2"/><path d="M644.8,511.33a8.75,8.75,0,0,0,2.38-6.4,8.49,8.49,0,0,0-2.38-6.33,8.74,8.74,0,0,0-6.46-2.36,8.86,8.86,0,0,0-6.53,2.36,8.54,8.54,0,0,0-2.37,6.33,8.26,8.26,0,0,0,8.9,8.82A8.66,8.66,0,0,0,644.8,511.33ZM625.07,523.1a20,20,0,0,1-11.53-18.44,19.48,19.48,0,0,1,3-10.65,19.93,19.93,0,0,1,8.55-7.34,34.73,34.73,0,0,1,26.63,0,19,19,0,0,1,11.43,18,20.53,20.53,0,0,1-2.92,10.81,20.07,20.07,0,0,1-8.55,7.63,33.1,33.1,0,0,1-26.57,0Z" transform="translate(-283 -454.83)" style="fill:#5865f2"/><path d="M702.13,486.48v14.33a11.3,11.3,0,0,0-6.43-1.66c-3.46,0-6.13,1.07-8,3.21s-2.79,5.48-2.79,10v12.21H669V485.75h15.59v12.34q1.29-6.77,4.19-10a9.54,9.54,0,0,1,7.43-3.21A10.69,10.69,0,0,1,702.13,486.48Z" transform="translate(-283 -454.83)" style="fill:#5865f2"/><path d="M736.71,511.07a8.45,8.45,0,0,0,2.43-6.26,8.09,8.09,0,0,0-2.37-6,10,10,0,0,0-12.89,0,8.19,8.19,0,0,0-2.4,6.13,8.31,8.31,0,0,0,2.4,6.17,8.64,8.64,0,0,0,6.37,2.39A8.82,8.82,0,0,0,736.71,511.07ZM755,476.8v47.77H739.09v-8.69a15.38,15.38,0,0,1-6.13,7.47,19,19,0,0,1-10.17,2.55,16.55,16.55,0,0,1-9.42-2.68,17.59,17.59,0,0,1-6.21-7.36A24.85,24.85,0,0,1,705,505.26a23.9,23.9,0,0,1,2.31-10.95A17.85,17.85,0,0,1,723.82,484q11.37,0,15.26,10.08V476.8Z" transform="translate(-283 -454.83)" style="fill:#5865f2"/><ellipse cx="225.41" cy="27.78" rx="7.93" ry="7.28" style="fill:#5865f2"/><path d="M500.47,494.9a20,20,0,0,0,15.87,0v29.87H500.47Z" transform="translate(-283 -454.83)" style="fill:#5865f2"/></svg>